<svg xmlns="http://www.w3.org/2000/svg" width="1200" height="675" viewBox="0 0 1200 675" role="img" aria-labelledby="title desc">
  <title id="title">Neon Ridge Drift cover art</title>
  <desc id="desc">Original low-poly neon ridge racing cover with a magenta drift car, city lights, and sunset scanlines.</desc>
  <defs>
    <linearGradient id="sky" x1="0" x2="0" y1="0" y2="1">
      <stop offset="0" stop-color="#14113d"/>
      <stop offset="0.45" stop-color="#38206a"/>
      <stop offset="1" stop-color="#0b1024"/>
    </linearGradient>
    <linearGradient id="road" x1="0" x2="0" y1="0" y2="1">
      <stop offset="0" stop-color="#383a56"/>
      <stop offset="1" stop-color="#15162a"/>
    </linearGradient>
  </defs>
  <rect width="1200" height="675" fill="url(#sky)"/>
  <circle cx="600" cy="202" r="88" fill="#ffd36e"/>
  <g fill="#2a2454">
    <path d="M0 303 88 236l78 67 96-86 109 86 75-64 88 64 109-91 124 91 88-72 92 72 108-92 145 92v372H0z"/>
  </g>
  <g fill="#102c3a">
    <rect x="72" y="342" width="42" height="144"/>
    <rect x="126" y="382" width="52" height="104"/>
    <rect x="964" y="330" width="46" height="156"/>
    <rect x="1026" y="370" width="58" height="116"/>
  </g>
  <g fill="#72f2ff">
    <rect x="82" y="366" width="24" height="5"/>
    <rect x="82" y="392" width="24" height="5"/>
    <rect x="976" y="356" width="22" height="5"/>
    <rect x="976" y="386" width="22" height="5"/>
    <rect x="1038" y="402" width="30" height="5"/>
  </g>
  <path d="M88 675 484 294h232l396 381z" fill="#19424a"/>
  <path d="M254 675 536 294h128l282 381z" fill="url(#road)"/>
  <g fill="#fff2ad">
    <path d="M590 336h20l-8 58h-8z"/>
    <path d="M582 426h36l-12 74h-12z"/>
    <path d="M570 548h60l-17 96h-26z"/>
  </g>
  <g transform="translate(0 18)">
    <path d="M384 500 530 458h118l112 54-54 35H438z" fill="#ff2f87"/>
    <path d="M524 458h116l48 35H486z" fill="#89f7ff"/>
    <path d="M430 548h84l-18 34h-78z" fill="#11111d"/>
    <path d="M648 548h84l-18 34h-78z" fill="#11111d"/>
    <path d="M743 518 838 493l-62 48z" fill="#ffd36e"/>
    <path d="M780 522 912 486l-98 64z" fill="#ff66b4"/>
  </g>
  <g fill="none" stroke="#ff66b4" stroke-width="6">
    <path d="M136 502c126-64 231-93 315-88"/>
    <path d="M760 408c102 7 209 40 322 99"/>
  </g>
  <text x="600" y="104" text-anchor="middle" font-family="Trebuchet MS, Segoe UI, sans-serif" font-size="70" font-weight="900" fill="#fff8df">NEON RIDGE</text>
  <text x="600" y="170" text-anchor="middle" font-family="Trebuchet MS, Segoe UI, sans-serif" font-size="58" font-weight="900" fill="#89f7ff">DRIFT</text>
  <text x="600" y="635" text-anchor="middle" font-family="Trebuchet MS, Segoe UI, sans-serif" font-size="24" font-weight="800" fill="#ffe66f">ORIGINAL THREE.JS ARCADE RIDGE RUN</text>
</svg>
